<svg width="150" height="150" viewBox="0 0 150 150" fill="none" xmlns="http://www.w3.org/2000/svg">
<path d="M125 18.75H25C14.6453 18.75 6.25 27.1453 6.25 37.5V112.5C6.25 122.855 14.6453 131.25 25 131.25H125C135.355 131.25 143.75 122.855 143.75 112.5V37.5C143.75 27.1453 135.355 18.75 125 18.75ZM125 31.25C125.722 31.25 126.416 31.3719 127.059 31.5984L75 73.2469L22.9406 31.5984C23.5844 31.3719 24.2781 31.25 25 31.25H125ZM125 118.75H25C21.5484 118.75 18.75 115.952 18.75 112.5V44.2531L71.0953 86.1297C72.2359 87.0438 73.6172 87.5 75 87.5C76.3828 87.5 77.7641 87.0438 78.9047 86.1297L131.25 44.2531V112.5C131.25 115.952 128.452 118.75 125 118.75Z" fill="#22D3EE"/>
</svg>
