<svg width="150" height="150" viewBox="0 0 150 150" fill="none" xmlns="http://www.w3.org/2000/svg">
<g clip-path="url(#clip0_17_3)">
<path d="M123.403 57.2764C121.911 49.6296 118.211 42.676 112.702 37.1671C107.193 31.6584 100.239 27.9579 92.5923 26.4658C89.3081 25.8245 86.1256 27.9682 85.4846 31.2526C84.8439 34.5374 86.9869 37.7193 90.2714 38.36C101.066 40.4659 109.402 48.802 111.508 59.597C112.073 62.4898 114.608 64.4972 117.449 64.4972C117.834 64.4972 118.224 64.4606 118.616 64.3838C121.901 63.7431 124.044 60.5609 123.403 57.2764Z" fill="#22D3EE"/>
<path d="M149.83 57.6939C148.181 43.0174 141.518 29.1869 131.068 18.7505C120.619 8.3138 106.78 1.66811 92.1007 0.037448C88.774 -0.331985 85.779 2.06479 85.4096 5.39056C85.0402 8.71663 87.4366 11.7122 90.7627 12.082C115.654 14.847 134.991 34.16 137.788 59.0477C138.136 62.1432 140.758 64.4307 143.801 64.4307C144.027 64.4307 144.256 64.4181 144.486 64.3923C147.811 64.0182 150.204 61.0197 149.83 57.6939Z" fill="#22D3EE"/>
<path d="M126.735 91.5719C126.717 91.5695 126.699 91.5669 126.681 91.5646C120.817 90.7914 115.035 89.3506 109.507 87.2884C102.502 84.6546 94.5356 86.3535 89.2132 91.6161C89.205 91.6243 89.1968 91.6322 89.1889 91.6404L84.1651 96.6643C71.675 88.7764 61.0921 78.1935 53.2045 65.7037L58.2286 60.6796C58.2365 60.6714 58.2444 60.6635 58.2526 60.6552C63.5155 55.3332 65.2141 47.3674 62.5856 40.3751C60.5181 34.8339 59.0776 29.051 58.3042 23.1878C58.3021 23.1694 58.2992 23.1506 58.2966 23.1322C56.9515 13.6172 48.6925 6.51092 39.0931 6.58914H19.3514C18.7822 6.58973 18.2053 6.6158 17.6367 6.66736C7.07313 7.62185 -0.744436 16.9924 0.210347 27.556C0.213277 27.5876 0.216207 27.619 0.219722 27.6506C2.47089 48.848 9.78484 69.5099 21.3711 87.4029C31.8864 103.944 46.1858 118.243 62.7271 128.76C80.5372 140.304 101.103 147.618 122.203 149.911C122.241 149.915 122.278 149.919 122.315 149.922C122.889 149.973 123.472 150 124.049 150C124.074 150 124.098 150 124.122 150C134.728 149.957 143.322 141.292 143.279 130.711V111.014C143.48 101.283 136.381 92.9327 126.735 91.5719ZM131.161 110.946V130.735C131.177 134.66 127.997 137.865 124.074 137.881C123.865 137.88 123.657 137.873 123.449 137.856C104.237 135.758 85.513 129.092 69.2975 118.577C69.282 118.566 69.2662 118.556 69.2504 118.546C54.1833 108.972 41.1591 95.9477 31.5849 80.8809C31.5755 80.866 31.5661 80.8513 31.5565 80.8361C21.0008 64.5426 14.3343 45.7282 12.276 26.4237C11.9469 22.5322 14.833 19.0883 18.7274 18.7365C18.9375 18.7177 19.1502 18.7078 19.3558 18.7078H39.1203C39.1631 18.7075 39.2065 18.7069 39.2501 18.7072C42.7719 18.7072 45.7898 21.3161 46.2942 24.8065C47.1878 31.5632 48.8492 38.2262 51.2369 44.6255C52.2093 47.213 51.5853 50.1535 49.647 52.1228L41.2924 60.4774C39.3638 62.4057 38.9615 65.3855 40.3098 67.7568C50.223 85.1907 64.678 99.6455 82.112 109.559C84.4832 110.907 87.4627 110.505 89.3916 108.576L97.7447 100.223C99.7135 98.2832 102.656 97.6589 105.257 98.6365C111.643 101.02 118.308 102.681 125.065 103.574C128.633 104.089 131.253 107.189 131.163 110.795C131.162 110.845 131.161 110.895 131.161 110.946Z" fill="#22D3EE"/>
</g>
<defs>
<clipPath id="clip0_17_3">
<rect width="150" height="150" fill="white"/>
</clipPath>
</defs>
</svg>
