<svg width="150" height="150" viewBox="0 0 150 150" fill="none" xmlns="http://www.w3.org/2000/svg">
<path d="M75 0C46.5223 0 23.4375 23.0848 23.4375 51.5625C23.4375 80.0402 75 150 75 150C75 150 126.562 80.0402 126.562 51.5625C126.562 23.0848 103.478 0 75 0ZM32.8125 51.5625C32.8125 28.2984 51.7359 9.375 75 9.375C98.2641 9.375 117.188 28.2984 117.188 51.5625C117.188 67.7672 93.7406 106.888 75 133.873C56.2594 106.888 32.8125 67.7672 32.8125 51.5625ZM75 28.125C62.0543 28.125 51.5625 38.6168 51.5625 51.5625C51.5625 64.5082 62.0543 75 75 75C87.9457 75 98.4375 64.5082 98.4375 51.5625C98.4375 38.6168 87.9457 28.125 75 28.125ZM75 65.625C67.2457 65.625 60.9375 59.3168 60.9375 51.5625C60.9375 43.8082 67.2457 37.5 75 37.5C82.7543 37.5 89.0625 43.8082 89.0625 51.5625C89.0625 59.3168 82.7543 65.625 75 65.625Z" fill="#22D3EE"/>
</svg>
